<?xml version="1.0" encoding="utf-8"?>
<!-- Generator: Adobe Illustrator 17.1.0, SVG Export Plug-In . SVG Version: 6.00 Build 0)  -->
<!DOCTYPE svg PUBLIC "-//W3C//DTD SVG 1.1//EN" "http://www.w3.org/Graphics/SVG/1.1/DTD/svg11.dtd">
<svg version="1.1" id="Layer_1" xmlns="http://www.w3.org/2000/svg" xmlns:xlink="http://www.w3.org/1999/xlink" x="0px" y="0px"
	 viewBox="0 0 200 200" enable-background="new 0 0 200 200" xml:space="preserve">
<g>
	<path fill="#FFFFFF" stroke="#000000" stroke-miterlimit="10" d="M100,0C44.7,0,0,44.7,0,100s44.7,100,100,100s100-44.7,100-100
		S155.3,0,100,0z M112.8,31.1c3.9,0,7.2,1.4,9.2,3.9c1.9,2.5,3.1,5.6,3.1,8.9c0,8.3-6.7,16.4-16.1,16.4h-0.3
		c-7.2,0-11.9-5.6-11.9-13.3C96.7,40,102.2,31.1,112.8,31.1z M125,143.1c-13.9,15.3-31.1,24.4-37.8,24.4l0,0c-2.2,0-4.4-0.6-6.1-2.5
		c-1.7-1.9-2.5-4.7-2.5-8.6c0-3.1,0.6-9.7,1.7-14.4l10-43.3c0.6-2.5,0.8-4.2,0.8-5c-1.7,0.6-9.4,6.1-13.1,9.2l-1.4,1.1l-3.9-10.6
		l0.8-0.8c14.2-13.1,31.1-23.6,38.9-23.6c2.2,0,4.2,1.1,5.3,3.1c1.1,1.9,1.4,4.2,1.4,6.9c0,3.1-0.6,9.4-1.4,13.6l-11.1,44.7
		c-0.6,2.2-0.8,3.6-0.8,4.7c0,0.6,0,0.8,0,1.1c1.1-0.3,8.9-5.6,14.2-10.3l1.1-1.1l4.2,9.2l0.6,0.8L125,143.1z"/>
</g>
</svg>
