<?xml version="1.0" encoding="utf-8"?>
<!-- Generator: Adobe Illustrator 17.1.0, SVG Export Plug-In . SVG Version: 6.00 Build 0)  -->
<!DOCTYPE svg PUBLIC "-//W3C//DTD SVG 1.1//EN" "http://www.w3.org/Graphics/SVG/1.1/DTD/svg11.dtd">
<svg version="1.1" id="Layer_1" xmlns="http://www.w3.org/2000/svg" xmlns:xlink="http://www.w3.org/1999/xlink" x="0px" y="0px"
	 viewBox="0 0 640 600" enable-background="new 0 0 640 600" xml:space="preserve">
<path fill="#FFFFFF" d="M484.1,535c-13.1-6.6-25.5-12.8-37.9-19.1c-41.3-20.9-82.6-41.7-123.8-62.7c-3.4-1.7-6.1-1.8-9.6-0.1
	c-52.2,26.5-104.5,52.9-156.8,79.4c-1.5,0.7-3,1.4-5,2.4c2.6-14.5,5-28.4,7.5-42.3c7.8-43.7,15.6-87.5,23.5-131.2
	c0.6-3.5-0.1-5.7-2.8-8.2C136.7,313.5,94.3,273.7,51.8,234c-1.1-1-2.5-1.6-3.8-2.3c0.3-0.5,0.6-1,1-1.5c14.6-2.1,29.2-4.1,43.8-6.2
	c39.2-5.5,78.5-10.9,117.7-16.4c6.3-0.9,12.5-2,18.8-2.6c3.6-0.3,5.5-1.8,7.1-5c26-50.8,52.1-101.6,78.1-152.4
	c0.8-1.6,1.7-3.2,2.9-5.5c1.1,2,1.9,3.5,2.7,5c26,50.6,52,101.2,77.9,151.9c2,3.8,4.3,5.5,8.6,6.1c41.7,5.7,83.4,11.6,125.1,17.4
	c17.5,2.4,34.9,4.9,52.4,7.4c0.6,0.1,1.2,0.3,2.9,1.8c-1.4,0.9-3,1.5-4.2,2.6c-42.5,39.7-84.9,79.5-127.4,119.2
	c-2.6,2.4-3.1,4.6-2.5,7.8c7.9,43.7,15.7,87.5,23.5,131.2C479.1,506.4,481.5,520.3,484.1,535z"/>
<rect fill="none" width="640" height="1136"/>
</svg>
